# xmcd
#
# Track frame offsets:
#	179
#	11245
#	22875
#	31068
#	41492
#	54769
#	66840
#	79860
#	91824
#	103589
#
# Disc length: 1569 seconds
# Revision: 1
# Processed by: cddbd v1.5.2PL0 Copyright (c) Steve Scherf et al.
# Submitted via: dBpowerAMP V12.0
#
DISCID=6b061f0a
DTITLE=Johnny Cash - Complete Columbia Album Collection, Disc 26 [Little Faus and Big Halsy]
DYEAR=1970
DGENRE=Country
TTITLE0=Rollin' Free
TTITLE1=Ballad of Little Fauss and Big Halsy
TTITLE2=Ballad of Little Fauss and Big Halsy [instrumental]
TTITLE3=7:06 Union [instrumental]
TTITLE4=The Little Man
TTITLE5=The Little Man [instrumental]
TTITLE6=Wanted Man
TTITLE7=Rollin' Free
TTITLE8=True Love is Greater Than Friendship
TTITLE9=Movin'
EXTD=
EXTT0=
EXTT1=
EXTT2=
EXTT3=
EXTT4=
EXTT5=
EXTT6=
EXTT7=
EXTT8=
EXTT9=
PLAYORDER=
